<?xml version="1.0" encoding="utf-8"?>
<!-- Generator: Adobe Illustrator 21.1.0, SVG Export Plug-In . SVG Version: 6.00 Build 0)  -->
<svg version="1.1" id="Layer_1" xmlns="http://www.w3.org/2000/svg" xmlns:xlink="http://www.w3.org/1999/xlink" x="0px" y="0px"
	 viewBox="0 0 579 390" style="enable-background:new 0 0 579 390;" xml:space="preserve">
<style type="text/css">
	.st0{fill:#2E3192;}
	.st1{fill:none;stroke:#000000;stroke-width:5.6693;stroke-miterlimit:10;}
	.st2{fill:none;}
	.st3{fill:#FFFFFF;}
	.st4{font-family:'CourierNewPSMT';}
	.st5{font-size:28.3465px;}
	.st6{fill:none;stroke:#000000;stroke-width:4.252;stroke-miterlimit:10;}
</style>
<g>
	<rect x="211" y="9" class="st0" width="190" height="30"/>
	<rect x="211" y="8" class="st1" width="190" height="90"/>
	<rect x="211" y="8" class="st2" width="190" height="90"/>
	<text transform="matrix(1 0 0 1 220.9468 28.2109)"><tspan x="0" y="0" class="st3 st4 st5">my_dequeue</tspan><tspan x="42.5" y="31.2" class="st4 st5">first</tspan><tspan x="51" y="62.4" class="st4 st5">last</tspan></text>
</g>
<g>
	<rect x="55" y="183" class="st0" width="190" height="30"/>
	<rect x="55" y="184.5" class="st1" width="190" height="120"/>
	<rect x="55" y="184.5" class="st2" width="190" height="120"/>
	<text transform="matrix(1 0 0 1 115.9785 204.7119)"><tspan x="0" y="0" class="st3 st4 st5">node</tspan><tspan x="0" y="28.3" class="st4 st5">perv</tspan><tspan x="0" y="56.7" class="st4 st5">next</tspan><tspan x="0" y="85" class="st4 st5">data</tspan></text>
</g>
<g>
	<rect x="323" y="183" class="st0" width="190" height="30"/>
	<rect x="323" y="184.5" class="st1" width="190" height="120"/>
	<rect x="323" y="184.5" class="st2" width="190" height="120"/>
	<text transform="matrix(1 0 0 1 383.9785 204.7119)"><tspan x="0" y="0" class="st3 st4 st5">node</tspan><tspan x="0" y="28.3" class="st4 st5">perv</tspan><tspan x="0" y="56.7" class="st4 st5">next</tspan><tspan x="0" y="85" class="st4 st5">data</tspan></text>
</g>
<g>
	<g>
		<path class="st6" d="M250.8,53C13.1,54.8-33.5,178.9,37.3,196"/>
		<g>
			<ellipse transform="matrix(0.9998 -1.752433e-02 1.752433e-02 0.9998 -0.892 4.3984)" cx="250.5" cy="53.1" rx="5.6" ry="5.6"/>
		</g>
		<g>
			<polygon points="27.7,205.5 33.7,195.2 30.5,183.7 55,198 			"/>
		</g>
	</g>
</g>
<g>
	<g>
		<path class="st6" d="M198.6,253c66.9,0,74-1,108.9-41.5"/>
		<g>
			<ellipse transform="matrix(1 -4.105647e-03 4.105647e-03 1 -1.037 0.8185)" cx="198.8" cy="253" rx="5.6" ry="5.6"/>
		</g>
		<g>
			<polygon points="310.3,225 305,214.3 293.6,210.6 319,198 			"/>
		</g>
	</g>
</g>
<rect x="367" y="351.5" class="st6" width="190" height="30"/>
<text transform="matrix(1 0 0 1 402.4629 374.3345)" class="st4 st5">nullptr</text>
<g>
	<g>
		<path class="st6" d="M368,230.1c-67.4,1.3-82.3,26.2-111.2-16.9"/>
		<g>
			
				<ellipse transform="matrix(0.9997 -2.527475e-02 2.527475e-02 0.9997 -5.6993 9.3664)" cx="367.7" cy="230.1" rx="5.6" ry="5.6"/>
		</g>
		<g>
			<polygon points="270.7,214.3 258.9,216.2 252,226 247.5,198 			"/>
		</g>
	</g>
</g>
<g>
	<g>
		<path class="st6" d="M355.3,82.8c165.1-4.2,265,99.7,175.4,113.7"/>
		<g>
			<ellipse transform="matrix(0.9998 -1.787886e-02 1.787886e-02 0.9998 -1.4253 6.3709)" cx="355.6" cy="82.9" rx="5.6" ry="5.6"/>
		</g>
		<g>
			<polygon points="538,184.5 534.3,195.9 540.1,206.5 513,198 			"/>
		</g>
	</g>
</g>
<g>
	<g>
		<path class="st6" d="M106,227.3c-0.2,104.3-3.4,137.7,245.1,139.1"/>
		<g>
			<ellipse transform="matrix(1 -4.895141e-03 4.895141e-03 1 -1.1128 0.5216)" cx="106" cy="227.6" rx="5.6" ry="5.6"/>
		</g>
		<g>
			<polygon points="342.7,377.3 347.4,366.3 342.8,355.3 368.9,366.5 			"/>
		</g>
	</g>
</g>
<g>
	<g>
		<path class="st6" d="M462.5,253.1c65.5,1.6,70.3,33.9,70.5,80.7"/>
		<g>
			
				<ellipse transform="matrix(1.665163e-02 -0.9999 0.9999 1.665163e-02 202.0111 711.5897)" cx="462.8" cy="253.1" rx="5.6" ry="5.6"/>
		</g>
		<g>
			<polygon points="522,325.4 533,330.1 544,325.4 533,351.5 			"/>
		</g>
	</g>
</g>
</svg>
