<?xml version="1.0" encoding="UTF-8" standalone="no"?>
<!-- Generator: Adobe Illustrator 17.1.0, SVG Export Plug-In . SVG Version: 6.00 Build 0)  -->

<svg
   xmlns:dc="http://purl.org/dc/elements/1.1/"
   xmlns:cc="http://creativecommons.org/ns#"
   xmlns:rdf="http://www.w3.org/1999/02/22-rdf-syntax-ns#"
   xmlns:svg="http://www.w3.org/2000/svg"
   xmlns="http://www.w3.org/2000/svg"
   xmlns:sodipodi="http://sodipodi.sourceforge.net/DTD/sodipodi-0.dtd"
   xmlns:inkscape="http://www.inkscape.org/namespaces/inkscape"
   version="1.1"
   id="Layer_1"
   x="0px"
   y="0px"
   viewBox="0 0 1084 458"
   enable-background="new 0 0 1084 458"
   xml:space="preserve"
   sodipodi:docname="logo.svg"
   inkscape:version="0.92.3 (2405546, 2018-03-11)"><metadata
   id="metadata5301"><rdf:RDF><cc:Work
       rdf:about=""><dc:format>image/svg+xml</dc:format><dc:type
         rdf:resource="http://purl.org/dc/dcmitype/StillImage" /><dc:title></dc:title></cc:Work></rdf:RDF></metadata><defs
   id="defs5299" /><sodipodi:namedview
   pagecolor="#ffffff"
   bordercolor="#666666"
   borderopacity="1"
   objecttolerance="10"
   gridtolerance="10"
   guidetolerance="10"
   inkscape:pageopacity="0"
   inkscape:pageshadow="2"
   inkscape:window-width="1920"
   inkscape:window-height="1024"
   id="namedview5297"
   showgrid="false"
   showguides="true"
   inkscape:guide-bbox="true"
   inkscape:zoom="0.96943231"
   inkscape:cx="500.28715"
   inkscape:cy="-0.76455412"
   inkscape:window-x="-4"
   inkscape:window-y="1196"
   inkscape:window-maximized="1"
   inkscape:current-layer="g6214" />



<g
   id="g6214"
   transform="translate(7.2207207,74.27027)"><rect
     style="fill:#293a63;fill-opacity:1"
     y="31.088234"
     x="35.81559"
     height="273.29211"
     width="1008.7124"
     id="rect5314" /><flowRoot
     transform="translate(17.687123,-1.6057933)"
     style="font-style:normal;font-weight:normal;font-size:40px;line-height:1.25;font-family:sans-serif;letter-spacing:0px;word-spacing:0px;fill:#ffffff;fill-opacity:1;stroke:none"
     id="flowRoot6121"
     xml:space="preserve"><flowRegion
       style="fill:#ffffff;fill-opacity:1"
       id="flowRegion6123"><rect
         style="fill:#ffffff;fill-opacity:1"
         y="56.828384"
         x="59.811043"
         height="132.67804"
         width="887.65454"
         id="rect6125" /></flowRegion><flowPara
       style="font-style:normal;font-variant:normal;font-weight:normal;font-stretch:normal;font-size:93.33333588px;font-family:'Liberation Sans';-inkscape-font-specification:'Liberation Sans, Normal';font-variant-ligatures:normal;font-variant-caps:normal;font-variant-numeric:normal;font-feature-settings:normal;text-align:start;writing-mode:lr-tb;text-anchor:start"
       id="flowPara6127">Информатика</flowPara></flowRoot><flowRoot
     transform="translate(28.799556,69.34015)"
     style="font-style:normal;font-variant:normal;font-weight:normal;font-stretch:normal;font-size:32px;line-height:1.25;font-family:'Liberation Sans';-inkscape-font-specification:'Liberation Sans, Normal';font-variant-ligatures:normal;font-variant-caps:normal;font-variant-numeric:normal;font-feature-settings:normal;text-align:start;letter-spacing:0px;word-spacing:0px;writing-mode:lr-tb;text-anchor:start;fill:#000000;fill-opacity:1;stroke:none"
     id="flowRoot6129"
     xml:space="preserve"><flowRegion
       style="font-style:normal;font-variant:normal;font-weight:normal;font-stretch:normal;font-size:32px;font-family:'Liberation Sans';-inkscape-font-specification:'Liberation Sans, Normal';font-variant-ligatures:normal;font-variant-caps:normal;font-variant-numeric:normal;font-feature-settings:normal;text-align:start;writing-mode:lr-tb;text-anchor:start"
       id="flowRegion6131"><rect
         style="font-style:normal;font-variant:normal;font-weight:normal;font-stretch:normal;font-size:32px;font-family:'Liberation Sans';-inkscape-font-specification:'Liberation Sans, Normal';font-variant-ligatures:normal;font-variant-caps:normal;font-variant-numeric:normal;font-feature-settings:normal;text-align:start;writing-mode:lr-tb;text-anchor:start"
         y="165.04504"
         x="57.765766"
         height="105.21622"
         width="961.38733"
         id="rect6133" /></flowRegion><flowPara
       style="font-style:italic;font-variant:normal;font-weight:normal;font-stretch:normal;font-size:21.33333397px;line-height:0.89999998;font-family:'Liberation Sans';-inkscape-font-specification:'Liberation Sans, Italic';font-variant-ligatures:normal;font-variant-caps:normal;font-variant-numeric:normal;font-feature-settings:normal;text-align:start;writing-mode:lr-tb;text-anchor:start;fill:#ffffff;fill-opacity:1"
       id="flowPara6159">Лабораторные работы для групп Б03-837, Б03-838, Б04-841, Б04-842, Б04-843, 7111-7115</flowPara></flowRoot><g
     id="g786"
     transform="matrix(0.78080364,0,0,0.78080364,-268.35272,144.72512)"><path
       id="path778"
       d="m 1347.3162,-59.97755 c -0.8161,0.25108 -0.8788,0.87877 -1.0671,1.31816 -1.4437,3.07573 -2.8874,6.15145 -4.3312,9.28995 -2.8874,6.33975 -5.712,12.74228 -8.5366,19.08204 -1.6321,3.57788 -3.3269,7.093 -4.8961,10.67088 -1.9459,4.39389 -3.8917,8.78778 -5.8376,13.11891 -0.1883,0.50215 -0.4394,0.75323 -1.1299,0.75323 -6.8419,-0.0628 -13.6838,-0.0628 -20.5885,0 -0.816,0 -0.816,-0.31385 -0.9415,-1.00431 -0.3139,-2.76188 0,-5.46098 -0.3139,-8.22286 -0.1883,-2.13417 -0.063,-4.20558 -0.1883,-6.27699 -0.3766,-4.5822 -0.3766,-9.22717 -0.6277,-13.80937 -0.1255,-2.25972 -0.063,-4.45666 -0.1883,-6.71638 -0.3766,-4.45666 -0.4394,-8.91332 -0.5649,-13.36998 -0.063,-1.38094 -0.1883,-2.82465 -0.1883,-4.26836 0,-0.31384 0.063,-0.62769 -0.4394,-0.62769 -0.4394,0 -0.3139,0.31385 -0.3767,0.56492 -0.6904,3.64066 -1.4437,7.34408 -2.1969,10.98473 -0.7532,3.7662 -1.632,7.53239 -2.448,11.29858 -0.7533,3.7662 -1.4437,7.59516 -2.197,11.36135 -0.7532,3.70342 -1.5692,7.46962 -2.3852,11.17304 -0.5022,2.44803 -1.0043,4.95882 -1.4437,7.46962 -0.1883,1.06708 -0.5022,1.50647 -1.6948,1.50647 -6.6536,-0.0628 -13.37,0 -20.0236,0 -0.8788,0 -1.4437,0.18831 -1.0671,-1.25539 0.9416,-3.70343 1.5065,-7.53239 2.2597,-11.36135 0.7533,-3.82897 1.632,-7.7207 2.448,-11.54966 0.7533,-3.76619 1.4438,-7.59516 2.197,-11.36135 0.8788,-4.20558 1.7575,-8.34839 2.6363,-12.55398 0.6277,-2.88741 1.1299,-5.77482 1.6948,-8.72501 0.6905,-3.3268 1.3809,-6.71638 2.0714,-10.04318 0.1883,-0.81601 0,-1.94587 0.6905,-2.32249 0.6905,-0.37662 1.6948,-0.0628 2.5736,-0.0628 11.8007,0 23.6014,0 35.4022,0 0.9415,0 1.3181,0.12554 1.2554,1.19263 -0.1256,3.89173 0.1883,7.84624 0.3138,11.73797 0.063,2.57356 -0.1255,5.2099 0.2511,7.78347 0.3766,2.76187 -0.063,5.46097 0.2511,8.22285 0.3138,2.63633 0.1255,5.27267 0.1883,7.909 0,0.37662 0,0.81601 0.3138,0.94155 0.3766,0.12554 0.4394,-0.37662 0.6277,-0.69047 1.632,-3.64065 3.2013,-7.2813 4.8333,-10.98473 1.3182,-3.07572 2.5736,-6.08867 3.8917,-9.1644 1.8831,-4.39389 3.7035,-8.85055 5.6493,-13.24444 0.3139,-0.69047 0.6905,-1.31817 0.9416,-2.07141 0.3766,-1.2554 1.1298,-1.69479 2.5108,-1.69479 12.0518,0.0628 24.0408,0.0628 36.0927,0 1.1926,0 1.5064,0.12554 1.1298,1.44371 -0.7532,2.88742 -1.1926,5.77483 -1.7575,8.66225 -0.6277,3.3268 -1.3182,6.6536 -2.0087,9.98041 -0.6904,3.3268 -1.3809,6.59083 -2.0714,9.91764 -0.7532,3.45234 -1.4437,6.96745 -2.1342,10.4198 -0.6904,3.3268 -1.2554,6.65361 -1.9458,9.98041 -0.7533,3.82896 -1.632,7.72069 -2.3853,11.54966 -0.3766,1.94586 -0.7532,3.9545 -1.1298,5.96314 -0.1256,0.816 -0.3767,1.31816 -1.4437,1.31816 -7.1558,-0.0628 -14.3743,-0.0628 -21.5301,0 -1.1299,0 -1.1926,-0.43939 -1.0043,-1.25539 0.816,-3.89174 1.5692,-7.78347 2.448,-11.6752 1.0671,-4.64497 1.7575,-9.28994 2.8874,-13.93492 0.816,-3.26403 1.3182,-6.6536 1.9459,-9.98041 0.6904,-3.38957 1.4437,-6.77914 2.1341,-10.16872 0.565,-2.32248 0.9416,-4.70774 1.4438,-7.21853 z"
       stroke-miterlimit="10"
       inkscape:connector-curvature="0"
       style="fill:#ffffff;fill-opacity:1;stroke:#000000;stroke-width:1.25539768;stroke-miterlimit:10" /><path
       id="path780"
       d="m 1626.7049,-74.91679 c -9.7293,0 -19.3959,0 -29.1252,0 -0.6905,0 -1.1299,0.25108 -1.5065,0.81601 -2.0714,3.38958 -4.2056,6.71638 -6.4025,10.04318 -4.1428,6.40253 -8.2857,12.80506 -12.4285,19.14482 -1.9458,3.01295 -3.9545,6.02591 -5.9631,9.03886 -0.1255,0.18831 -0.1255,0.6277 -0.5022,0.37662 -0.1255,-0.0628 -0.1255,-0.43939 -0.063,-0.6277 0.7533,-2.57356 1.1299,-5.2099 1.6321,-7.78346 1.0043,-5.08436 2.1969,-10.16873 3.264,-15.31586 0.9415,-4.5822 1.8203,-9.1644 2.6991,-13.7466 0.3766,-2.00864 0.3766,-2.00864 -1.6948,-2.00864 -7.7835,0 -15.6297,0 -23.4132,0 -0.5649,0 -1.1926,-0.18831 -1.3181,0.69047 -0.2511,1.31817 -0.565,2.69911 -0.816,4.01728 -0.7533,4.77051 -1.9459,9.41548 -2.7619,14.12322 -0.8788,5.14713 -2.1969,10.16872 -3.2013,15.31585 -1.0671,5.33544 -2.0714,10.67088 -3.264,15.94355 -1.3182,6.08868 -2.3225,12.24013 -3.6407,18.26604 -0.251,1.06708 0.1256,0.75323 0.6277,0.75323 9.8549,0 19.7098,0 29.5647,0 0.4393,0 0.816,0.0628 1.1926,-0.50215 1.8203,-2.95019 3.7034,-5.8376 5.5865,-8.72502 4.2683,-6.52807 8.5995,-12.99336 12.9306,-19.52143 2.1969,-3.32681 4.3311,-6.65361 6.4653,-9.98041 -0.063,2.88741 -0.816,5.52375 -1.3182,8.28562 -0.9415,5.14713 -2.1969,10.16872 -3.2012,15.31585 -0.9416,4.83328 -1.9459,9.66656 -2.9502,14.43708 -0.1256,0.50215 0,0.75323 0.5649,0.69046 1.0671,-0.0628 2.0714,0 3.1385,0 7.2813,0 14.6254,0 21.9067,0 0.4394,0 0.9415,0.31385 1.0671,-0.69046 0.5649,-3.26404 1.2554,-6.4653 1.8831,-9.72934 1.0043,-5.14713 2.1969,-10.16872 3.264,-15.31585 0.9416,-4.70774 1.6948,-9.47825 2.7619,-14.12322 1.1926,-5.08436 2.0086,-10.23149 3.2012,-15.31585 1.0044,-4.26835 1.5693,-8.72502 2.5108,-12.99337 0.3139,-0.87878 0.1256,-0.87878 -0.6904,-0.87878 z"
       stroke-miterlimit="10"
       inkscape:connector-curvature="0"
       style="fill:#ffffff;fill-opacity:1;stroke:#000000;stroke-width:1.25539768;stroke-miterlimit:10" /><path
       id="path782"
       d="m 1509.6391,-74.91679 c 11.7379,0 23.5387,0 35.2766,0 0.7533,0 1.381,-0.31385 1.0671,1.12986 -1.1926,5.77483 -2.3225,11.54966 -3.6406,17.32449 -0.063,0.18831 0.063,0.43939 0,0.69047 -0.1256,0.81601 -0.3766,1.31817 -1.4437,1.31817 -6.9047,-0.0628 -13.8094,-0.0628 -20.7141,-0.0628 -1.6948,0 -1.6948,0 -2.1342,2.25971 -1.0671,5.77483 -2.1969,11.61243 -3.5151,17.38726 -1.1298,5.2099 -2.0086,10.4198 -3.0129,15.6297 -0.8788,4.26835 -1.8831,8.5367 -2.6991,12.80506 -0.1883,0.94154 -0.6277,0.69046 -1.0671,0.69046 -6.7792,0 -13.4956,0 -20.2747,0 -1.5692,0 -3.0757,0 -4.645,0 -0.6904,0 -0.816,-0.12554 -0.6277,-0.816 0.7533,-3.32681 1.381,-6.71638 2.0714,-10.04319 0.6905,-3.3268 1.4437,-6.59083 2.0714,-9.91764 0.6277,-2.95018 1.1299,-5.90037 1.6948,-8.85055 0.6905,-3.3268 1.381,-6.59084 2.0714,-9.91764 0.565,-2.82465 1.1927,-5.71206 1.7576,-8.53671 0.1883,-0.87877 -0.4394,-0.69046 -0.9416,-0.69046 -6.9674,0 -13.9976,0 -20.9651,0 -1.2554,0 -1.4437,-0.25108 -1.1299,-1.50648 0.6905,-2.88742 1.1927,-5.77483 1.7576,-8.72502 0.6277,-3.26403 1.4437,-6.46529 1.8831,-9.72933 0.063,-0.6277 0.6905,-0.56493 1.1926,-0.56493 3.3268,0 6.6536,0 9.9177,0 8.8505,0.12554 17.45,0.12554 26.0495,0.12554 z"
       stroke-miterlimit="10"
       inkscape:connector-curvature="0"
       style="fill:#ffffff;fill-opacity:1;stroke:#000000;stroke-width:1.25539768;stroke-miterlimit:10" /><path
       id="path784"
       d="m 1467.0183,-50.87592 c -0.2511,-1.82033 -0.4394,-3.64065 -1.0043,-5.33544 -1.8203,-5.58652 -5.8376,-9.10163 -11.2358,-11.0475 -3.7662,-1.38094 -7.7835,-1.75756 -11.738,-1.8831 -1.8203,-0.0628 -3.6406,0 -5.3982,0 0.6277,-3.13849 1.1926,-6.21422 1.7576,-9.35271 0.063,-0.37662 0.816,-1.06709 -0.5022,-1.00432 -8.4111,0.0628 -16.8223,0.0628 -25.1707,0 -0.5649,0 -0.6905,0.12554 -0.7532,0.69047 -0.565,3.01296 -1.2554,6.02591 -1.8204,9.03886 -0.1255,0.56493 -0.2511,0.6277 -0.7532,0.6277 -2.5736,0.0628 -5.2099,0 -7.7835,0.18831 -3.1385,0.25108 -6.2142,0.75324 -9.1016,1.82033 -6.5281,2.32248 -12.2401,5.96314 -16.4457,11.6752 -5.2099,7.03022 -7.5952,14.81369 -6.277,23.47593 0.9415,6.4653 4.7077,10.98473 10.4826,13.80938 3.8289,1.88309 7.9717,2.57356 12.2401,2.6991 1.8831,0.0628 3.7034,0.0628 5.5865,0 0.8788,-0.0628 0.8788,0.37662 0.7532,0.94155 -0.251,1.19263 -0.5649,2.44803 -0.816,3.64065 -0.4394,2.19695 -0.8787,4.3939 -1.3181,6.59084 8.5994,0 17.0734,0 25.6101,0.0628 0.8788,0 1.1926,-0.37662 1.3182,-1.00432 0.5649,-3.01295 1.1298,-5.96314 1.632,-8.97609 0.1255,-0.94155 0.4394,-1.19263 1.3809,-1.2554 2.8874,-0.0628 5.8376,0.12554 8.725,-0.18831 3.4524,-0.37662 6.7792,-1.00432 9.9804,-2.25971 3.8918,-1.44371 7.4069,-3.57789 10.4198,-6.4653 3.5779,-3.26403 6.1515,-7.21854 7.909,-11.73797 1.1299,-2.82464 1.8204,-5.71206 2.0714,-8.66224 0.3139,-2.07141 0.565,-4.01728 0.2511,-6.08868 z m -58.3132,-1.44371 c -1.3809,6.52807 -2.5736,13.11891 -3.829,19.64697 -0.1883,0.87878 -0.5021,1.82033 -1.632,1.31817 -4.0173,0.0628 -6.7791,-2.6991 -7.3441,-6.4653 -0.6904,-4.70774 1.0044,-8.72501 4.0801,-12.11458 2.0714,-2.32249 4.8333,-3.38958 7.909,-3.51512 0.6905,0.0628 1.0671,0 0.816,1.12986 z m 33.2053,7.093 c -0.6905,5.39821 -2.4481,10.23149 -7.6579,12.93059 -1.4438,0.75324 -3.013,0.94155 -4.645,1.00432 -0.9416,0 -0.8788,-0.50216 -0.7533,-1.00432 0.7533,-3.70342 1.6321,-7.40684 2.3853,-11.17304 0.5649,-2.82464 1.2554,-5.58651 1.632,-8.41116 0.1883,-1.63202 0.9416,-1.56925 2.0714,-1.50648 3.2013,0.12554 5.8376,2.19695 6.6536,5.33544 0.1883,0.87878 0.5022,1.82033 0.3139,2.82465 z"
       stroke-miterlimit="10"
       inkscape:connector-curvature="0"
       style="fill:#ffffff;fill-opacity:1;stroke:#000000;stroke-width:1.25539768;stroke-miterlimit:10" /></g><flowRoot
     xml:space="preserve"
     id="flowRoot6169"
     style="font-style:normal;font-variant:normal;font-weight:normal;font-stretch:normal;font-size:32px;line-height:1.25;font-family:'Liberation Sans';-inkscape-font-specification:'Liberation Sans, Normal';font-variant-ligatures:normal;font-variant-caps:normal;font-variant-numeric:normal;font-feature-settings:normal;text-align:start;letter-spacing:0px;word-spacing:0px;writing-mode:lr-tb;text-anchor:start;fill:#000000;fill-opacity:1;stroke:none"
     transform="matrix(1.0012083,0,0,1.0012083,26.984701,3.177207)"><flowRegion
       id="flowRegion6163"
       style="font-style:normal;font-variant:normal;font-weight:normal;font-stretch:normal;font-size:32px;font-family:'Liberation Sans';-inkscape-font-specification:'Liberation Sans, Normal';font-variant-ligatures:normal;font-variant-caps:normal;font-variant-numeric:normal;font-feature-settings:normal;text-align:start;writing-mode:lr-tb;text-anchor:start"><rect
         id="rect6161"
         width="935.12878"
         height="58.53442"
         x="57.765766"
         y="165.04504"
         style="font-style:normal;font-variant:normal;font-weight:normal;font-stretch:normal;font-size:32px;font-family:'Liberation Sans';-inkscape-font-specification:'Liberation Sans, Normal';font-variant-ligatures:normal;font-variant-caps:normal;font-variant-numeric:normal;font-feature-settings:normal;text-align:start;writing-mode:lr-tb;text-anchor:start" /></flowRegion><flowPara
       id="flowPara6167"
       style="font-style:normal;font-variant:normal;font-weight:normal;font-stretch:normal;font-size:61.92517471px;line-height:0.89999998;font-family:'Liberation Sans';-inkscape-font-specification:'Liberation Sans, Normal';font-variant-ligatures:normal;font-variant-caps:normal;font-variant-numeric:normal;font-feature-settings:normal;text-align:start;writing-mode:lr-tb;text-anchor:start;fill:#ffffff;fill-opacity:1">Алгоритмы и структуры данных</flowPara></flowRoot><flowRoot
     xml:space="preserve"
     id="flowRoot168"
     style="fill:black;fill-opacity:1;stroke:none;font-family:sans-serif;font-style:normal;font-weight:normal;font-size:40px;line-height:1.25;letter-spacing:0px;word-spacing:0px"><flowRegion
       id="flowRegion170"><rect
         id="rect172"
         width="91.806305"
         height="41.261261"
         x="453.87387"
         y="210.43243" /></flowRegion><flowPara
       id="flowPara174"></flowPara></flowRoot></g></svg>